<svg xmlns="http://www.w3.org/2000/svg" xmlns:xlink="http://www.w3.org/1999/xlink" version="1.1" width="256" height="256" viewBox="0 0 100 100">


		<defs>
			<g id="background">
<path fill="#background-gradient" stroke="none" d=" M 96.1 30.55 Q 92.3 21.55 85.35 14.6 78.45 7.7 69.5 3.9 60.2 0 50.05 0 39.85 0 30.55 3.9 21.55 7.7 14.65 14.6 7.75 21.55 3.95 30.55 0 39.8 0 50 0 60.15 3.95 69.45 7.75 78.4 14.65 85.35 21.55 92.25 30.55 96.05 39.85 100 50.05 100 60.2 100 69.5 96.05 78.45 92.25 85.35 85.35 92.3 78.4 96.1 69.45 100 60.15 100 50 100 39.8 96.1 30.55 Z"/>
</g><mask id="mask">
<path fill="#FFFFFF" stroke="none" d=" M 96.1 30.55 Q 92.3 21.55 85.35 14.6 78.45 7.7 69.5 3.9 60.2 0 50.05 0 39.85 0 30.55 3.9 21.55 7.7 14.65 14.6 7.75 21.55 3.95 30.55 0 39.8 0 50 0 60.15 3.95 69.45 7.75 78.4 14.65 85.35 21.55 92.25 30.55 96.05 39.85 100 50.05 100 60.2 100 69.5 96.05 78.45 92.25 85.35 85.35 92.3 78.4 96.1 69.45 100 60.15 100 50 100 39.8 96.1 30.55 Z"/>
</mask><g id="gloss-top">
<path fill="#FFFFFF" fill-opacity="0.30196078431372547" stroke="none" d=" M 96.05 30.55 Q 92.25 21.55 85.3 14.65 78.4 7.75 69.45 3.9 60.15 0 50 0 39.8 0 30.55 3.9 21.55 7.75 14.65 14.65 7.75 21.55 3.9 30.55 0 39.8 0 50 L 99.95 50 Q 99.95 39.8 96.05 30.55 Z"/>
</g><g id="gloss-right">
<path fill="#FFFFFF" fill-opacity="0.30196078431372547" stroke="none" d=" M 96.1 30.55 Q 92.3 21.55 85.35 14.65 78.5 7.75 69.5 3.9 60.2 0 50.05 0 L 50.05 100 Q 60.2 100 69.5 96.05 78.5 92.25 85.35 85.35 92.3 78.45 96.1 69.45 100 60.15 100 50 100 39.8 96.1 30.55 Z"/>
</g><g id="gloss-left">
<path fill="#FFFFFF" fill-opacity="0.30196078431372547" stroke="none" d=" M 30.55 3.9 Q 21.55 7.75 14.65 14.65 7.75 21.55 3.9 30.55 0 39.8 0 50 0 60.15 3.9 69.45 7.75 78.45 14.65 85.35 21.55 92.25 30.55 96.05 39.8 100 50 100 L 50 0 Q 39.8 0 30.55 3.9 Z"/>
</g>
			
	<linearGradient id="background-gradient" x1="0" y1="0" y2="1" x2="0">
		<stop stop-color="#fc812f" offset="0%"/>
		<stop stop-color="#fc812f" offset="100%"/>
	</linearGradient>

			
			
			<g transform="scale(3.3333333333333335)" id="picture"><path d="M15 0C6.7 0 0 6.7 0 15c0 3.9 1.5 7.5 4 10.1l.1.2.1.1C7 28.2 10.8 30 15 30c8.3 0 15-6.7 15-15S23.3 0 15 0zm13.4 10.8l-2.5-.7L23 5.4V3.5c2.5 1.8 4.4 4.3 5.4 7.3zm-8.9 13.1l-3.4-2.6 1.8-4.8 5.2-.4.9 5.2-4.5 2.6zM15.1 21l-6.3 1-2.7-5 2.7-5 4.5-.4 3.6 4.6-1.8 4.8zM11.6 4.1l4.2 2.1-2.6 4.3-4.4.5-1.7-3.4 4.5-3.5zM22 2.9s0 .1 0 0V5l-5.4.4L12 3.2V1.3c1-.2 2-.3 3-.3 2.6 0 5 .7 7 1.9zM3.2 7.5l3 .4L8 11.4l-2.8 5-4 .4c-.1-.5-.2-1.1-.2-1.8 0-2.7.8-5.3 2.2-7.5zm3.9 19L8.8 23l6.5-.9 3.6 2.7-.9 3.9c-1 .2-2 .3-3.1.3-2.9 0-5.6-.9-7.8-2.5zM27.6 21h-2.7l-.9-5.4 1.8-4.5 2.9.8c.2 1 .4 2 .4 3.1-.1 2.2-.6 4.2-1.5 6z"/></g>
			
	<linearGradient id="picture-gradient" x1="0" y1="0" y2="1" x2="0">
		<stop stop-color="#ffffff" offset="0%"/>
		<stop stop-color="#e5eff9" offset="100%"/>
	</linearGradient>

		</defs>

		

			<use xlink:href="#background" fill="url(#background-gradient)"/>

		

			<g mask="url(#mask)">
				<g transform="             translate(                                 50 50 )                             translate(0 0)  scale(0.8)                               translate(                                 -50 -50 )">
						<use xlink:href="#picture" fill="url(#picture-gradient)"/>
				</g>
			</g>

		



	</svg>